<svg xmlns="http://www.w3.org/2000/svg" width="23" height="21.234" viewBox="0 0 23 21.234">
  <path id="Path_66" data-name="Path 66" d="M19.838-1.332H3.163A3.171,3.171,0,0,0,0,1.841V12.082a3.171,3.171,0,0,0,3.151,3.173V19.9l6.655-4.647H19.838A3.171,3.171,0,0,0,23,12.082V1.841a3.171,3.171,0,0,0-3.162-3.173Zm1.814,13.414A1.82,1.82,0,0,1,19.838,13.9H9.384L4.5,17.313V13.9H3.163a1.82,1.82,0,0,1-1.814-1.821V1.841A1.82,1.82,0,0,1,3.163.02H19.838a1.82,1.82,0,0,1,1.814,1.821Zm0,0" transform="translate(-0.001 1.332)" fill="#555"/>
</svg>
