<svg xmlns="http://www.w3.org/2000/svg" width="23" height="21.234" viewBox="0 0 23 21.234">
  <path id="like" data-name="like" d="M28.984,14.436a2.473,2.473,0,0,0,.688-1.763,2.558,2.558,0,0,0-.643-1.527A2.2,2.2,0,0,0,28.4,8.415a5.938,5.938,0,0,0-3.973-.853,17.2,17.2,0,0,0-2.434.28h0c-.247.04-.51.089-.777.142A7.054,7.054,0,0,1,21.83,5.4c.693-1.892.653-3.339-.129-4.307A3.312,3.312,0,0,0,19.183,0a1.307,1.307,0,0,0-.955.391,2.728,2.728,0,0,0-.416,2.118c-.653,1.572-2.484,5.426-4.032,6.5a.517.517,0,0,0-.079.062,4.764,4.764,0,0,0-.97,1.305,2.229,2.229,0,0,0-.98-.222H8.733A1.963,1.963,0,0,0,6.675,12v7.216a1.963,1.963,0,0,0,2.058,1.847h3.018a2.219,2.219,0,0,0,1.187-.337l1.163.124a55.433,55.433,0,0,0,6.6.324c.589.04,1.143.062,1.658.062a12.332,12.332,0,0,0,2.3-.186,4.371,4.371,0,0,0,3.073-1.714,2.477,2.477,0,0,0,.336-1.7,2.7,2.7,0,0,0,1.123-2.3A2.736,2.736,0,0,0,28.984,14.436ZM8.733,19.862a.689.689,0,0,1-.722-.648v-7.22a.689.689,0,0,1,.722-.648h3.018a.689.689,0,0,1,.722.648v7.216a.689.689,0,0,1-.722.648H8.733Zm18.985-5.946a.551.551,0,0,0-.089.724,1.713,1.713,0,0,1,.228.742,1.735,1.735,0,0,1-.93,1.536.569.569,0,0,0-.228.684,1.421,1.421,0,0,1-.134,1.146,3.169,3.169,0,0,1-2.187,1.128,14.505,14.505,0,0,1-3.607.1H20.7a54.346,54.346,0,0,1-6.432-.315h0l-.5-.053a1.7,1.7,0,0,0,.045-.391v-7.22a1.7,1.7,0,0,0-.094-.551,3.6,3.6,0,0,1,.92-1.523c2.222-1.581,4.394-6.914,4.488-7.145a.508.508,0,0,0,.03-.3,2.5,2.5,0,0,1,.064-1.288,1.869,1.869,0,0,1,1.4.6c.5.626.485,1.745-.059,3.228-.831,2.26-.9,3.45-.242,3.974a1.176,1.176,0,0,0,1.079.173c.3-.062.589-.115.861-.155L22.315,9c1.519-.3,4.24-.48,5.185.293a1.179,1.179,0,0,1,.168,1.621.552.552,0,0,0,.119.773s.549,1.035.549,1.035A2.8,2.8,0,0,1,27.718,13.916Z" transform="translate(-6.675)" fill="#555"/>
</svg>
