<svg xmlns="http://www.w3.org/2000/svg" width="40" height="40" viewBox="0 0 40 40">
  <g id="Group_581" data-name="Group 581" transform="translate(-34 -662)">
    <g id="Rectangle_66" data-name="Rectangle 66" transform="translate(34 662)" fill="#fff" stroke="#333" stroke-width="1">
      <rect width="40" height="40" rx="5" stroke="none"/>
      <rect x="0.5" y="0.5" width="39" height="39" rx="4.5" fill="none"/>
    </g>
    <g id="Group_580" data-name="Group 580" transform="translate(-5 8)">
      <g id="Group_497" data-name="Group 497" transform="translate(50.186 683.232)">
        <g id="Group_496" data-name="Group 496" transform="translate(0)">
          <path id="Path_113" data-name="Path 113" d="M90.222,455.973H72.187a.2.2,0,0,0,0,.4H90.222a.2.2,0,0,0,0-.4Z" transform="translate(-71.995 -455.973)" fill="#333"/>
        </g>
      </g>
      <g id="Group_499" data-name="Group 499" transform="translate(50.186 662)">
        <g id="Group_498" data-name="Group 498" transform="translate(0)">
          <path id="Path_114" data-name="Path 114" d="M90.222,0H72.187a.2.2,0,0,0-.192.2.2.2,0,0,0,.192.2H90.222a.2.2,0,0,0,.192-.2A.2.2,0,0,0,90.222,0Z" transform="translate(-71.995)" fill="#333"/>
        </g>
      </g>
      <g id="Group_501" data-name="Group 501" transform="translate(49 683.232)">
        <g id="Group_500" data-name="Group 500" transform="translate(0)">
          <path id="Path_115" data-name="Path 115" d="M49.381,458.345a.989.989,0,1,1,0-1.977.2.2,0,1,0,0-.4,1.384,1.384,0,1,0,0,2.768.2.2,0,1,0,0-.4Z" transform="translate(-47.997 -455.973)" fill="#333"/>
        </g>
      </g>
      <g id="Group_503" data-name="Group 503" transform="translate(49.791 684.023)">
        <g id="Group_502" data-name="Group 502" transform="translate(0)">
          <path id="Path_116" data-name="Path 116" d="M64.589,472.762a.2.2,0,1,1,0-.4.2.2,0,1,0,0-.4.593.593,0,0,0,0,1.186.2.2,0,1,0,0-.4Z" transform="translate(-63.996 -471.971)" fill="#333"/>
        </g>
      </g>
      <g id="Group_505" data-name="Group 505" transform="translate(49 662)">
        <g id="Group_504" data-name="Group 504" transform="translate(0)">
          <path id="Path_117" data-name="Path 117" d="M49.381,0A1.386,1.386,0,0,0,48,1.385a.2.2,0,0,0,.4,0A.99.99,0,0,1,49.381.4a.2.2,0,0,0,0-.4Z" transform="translate(-47.997 -0.001)" fill="#333"/>
        </g>
      </g>
      <g id="Group_507" data-name="Group 507" transform="translate(49 663.186)">
        <g id="Group_506" data-name="Group 506" transform="translate(0)">
          <path id="Path_118" data-name="Path 118" d="M48.195,24a.192.192,0,0,0-.2.186V45.44a.2.2,0,0,0,.4,0V24.185A.192.192,0,0,0,48.195,24Z" transform="translate(-47.997 -23.999)" fill="#333"/>
        </g>
      </g>
      <g id="Group_509" data-name="Group 509" transform="translate(68.209 662)">
        <g id="Group_508" data-name="Group 508" transform="translate(0)">
          <path id="Path_119" data-name="Path 119" d="M448.171,0a.2.2,0,0,0,0,.4.2.2,0,0,1,.2.2.2.2,0,1,0,.4,0A.594.594,0,0,0,448.171,0Z" transform="translate(-447.973)" fill="#333"/>
        </g>
      </g>
      <g id="Group_511" data-name="Group 511" transform="translate(68.209 682.837)">
        <g id="Group_510" data-name="Group 510">
          <path id="Path_120" data-name="Path 120" d="M448.565,447.973a.2.2,0,0,0-.2.2.2.2,0,0,1-.2.2.2.2,0,1,0,0,.4.594.594,0,0,0,.593-.593A.2.2,0,0,0,448.565,447.973Z" transform="translate(-447.972 -447.973)" fill="#333"/>
        </g>
      </g>
      <g id="Group_513" data-name="Group 513" transform="translate(50.186 685.605)">
        <g id="Group_512" data-name="Group 512" transform="translate(0)">
          <path id="Path_121" data-name="Path 121" d="M90.222,503.969H72.187a.2.2,0,0,0,0,.4H90.222a.2.2,0,0,0,0-.4Z" transform="translate(-71.995 -503.969)" fill="#333"/>
        </g>
      </g>
      <g id="Group_515" data-name="Group 515" transform="translate(68.209 685.209)">
        <g id="Group_514" data-name="Group 514">
          <path id="Path_122" data-name="Path 122" d="M448.565,495.97a.2.2,0,0,0-.2.2.2.2,0,0,1-.2.2.2.2,0,1,0,0,.4.594.594,0,0,0,.593-.593A.2.2,0,0,0,448.565,495.97Z" transform="translate(-447.972 -495.97)" fill="#333"/>
        </g>
      </g>
      <g id="Group_517" data-name="Group 517" transform="translate(68.605 662.395)">
        <g id="Group_516" data-name="Group 516">
          <path id="Path_123" data-name="Path 123" d="M456.17,8a.192.192,0,0,0-.2.186V28.651a.2.2,0,0,0,.4,0V8.186A.192.192,0,0,0,456.17,8Z" transform="translate(-455.972 -8)" fill="#333"/>
        </g>
      </g>
      <g id="Group_519" data-name="Group 519" transform="translate(68.605 683.628)">
        <g id="Group_518" data-name="Group 518">
          <path id="Path_124" data-name="Path 124" d="M456.17,463.972a.2.2,0,0,0-.2.2v1.582a.2.2,0,1,0,.4,0V464.17A.2.2,0,0,0,456.17,463.972Z" transform="translate(-455.972 -463.972)" fill="#333"/>
        </g>
      </g>
      <g id="Group_521" data-name="Group 521" transform="translate(50.977 663.186)">
        <g id="Group_520" data-name="Group 520" transform="translate(0)">
          <path id="Path_125" data-name="Path 125" d="M88.193,24a.192.192,0,0,0-.2.185V43.069a.2.2,0,0,0,.4,0V24.184A.192.192,0,0,0,88.193,24Z" transform="translate(-87.995 -23.999)" fill="#333"/>
        </g>
      </g>
      <g id="Group_523" data-name="Group 523" transform="translate(50.186 684.814)">
        <g id="Group_522" data-name="Group 522" transform="translate(0)">
          <path id="Path_126" data-name="Path 126" d="M89.826,487.971H72.187a.2.2,0,0,0,0,.4H89.826a.2.2,0,0,0,0-.4Z" transform="translate(-71.995 -487.971)" fill="#333"/>
        </g>
      </g>
      <g id="Group_525" data-name="Group 525" transform="translate(50.186 684.023)">
        <g id="Group_524" data-name="Group 524" transform="translate(0)">
          <path id="Path_127" data-name="Path 127" d="M89.826,471.971H72.187a.2.2,0,0,0,0,.4H89.826a.2.2,0,0,0,0-.4Z" transform="translate(-71.995 -471.971)" fill="#333"/>
        </g>
      </g>
      <g id="Group_527" data-name="Group 527" transform="translate(53.975 669.006)">
        <g id="Group_526" data-name="Group 526" transform="translate(0)">
          <path id="Path_128" data-name="Path 128" d="M154.957,157.527a2.57,2.57,0,1,1,0-5.14.2.2,0,1,0,0-.4,2.966,2.966,0,1,0,0,5.931.2.2,0,1,0,0-.4Z" transform="translate(-151.991 -151.991)" fill="#333"/>
        </g>
      </g>
      <g id="Group_529" data-name="Group 529" transform="translate(62.776 669.006)">
        <g id="Group_528" data-name="Group 528" transform="translate(0)">
          <path id="Path_129" data-name="Path 129" d="M336.177,151.991a.2.2,0,0,0,0,.4,2.57,2.57,0,1,1,0,5.14.2.2,0,1,0,0,.4,2.966,2.966,0,0,0,0-5.931Z" transform="translate(-335.979 -151.991)" fill="#333"/>
        </g>
      </g>
      <g id="Group_531" data-name="Group 531" transform="translate(56.985 667.966)">
        <g id="Group_530" data-name="Group 530" transform="translate(0)">
          <path id="Path_130" data-name="Path 130" d="M221.914,130.129a3.121,3.121,0,0,0-5.923,0,.2.2,0,0,0,.155.232.193.193,0,0,0,.039,0,.2.2,0,0,0,.194-.159,2.467,2.467,0,0,1,2.574-1.818,2.44,2.44,0,0,1,2.574,1.819.2.2,0,0,0,.388-.078Z" transform="translate(-215.986 -127.993)" fill="#333"/>
        </g>
      </g>
      <g id="Group_533" data-name="Group 533" transform="translate(63.223 674.237)">
        <g id="Group_532" data-name="Group 532" transform="translate(0)">
          <path id="Path_131" data-name="Path 131" d="M344.177,263.415a.2.2,0,0,0-.2.2V266.8a.2.2,0,1,0,.4,0v-3.191A.2.2,0,0,0,344.177,263.415Z" transform="translate(-343.979 -263.415)" fill="#333"/>
        </g>
      </g>
      <g id="Group_535" data-name="Group 535" transform="translate(56.304 674.231)">
        <g id="Group_534" data-name="Group 534" transform="translate(0)">
          <path id="Path_132" data-name="Path 132" d="M200.185,263.282a.2.2,0,0,0-.2.2v3.2a.2.2,0,1,0,.4,0v-3.2A.2.2,0,0,0,200.185,263.282Z" transform="translate(-199.987 -263.282)" fill="#333"/>
        </g>
      </g>
      <g id="Group_537" data-name="Group 537" transform="translate(56.19 677.362)">
        <g id="Group_536" data-name="Group 536" transform="translate(0)">
          <path id="Path_133" data-name="Path 133" d="M207.3,327.981h-7.117a.2.2,0,1,0,0,.4H207.3a.2.2,0,1,0,0-.4Z" transform="translate(-199.987 -327.981)" fill="#333"/>
        </g>
      </g>
      <g id="Group_539" data-name="Group 539" transform="translate(56.19 678.111)">
        <g id="Group_538" data-name="Group 538" transform="translate(0)">
          <path id="Path_134" data-name="Path 134" d="M207.3,343.979h-7.117a.2.2,0,1,0,0,.4H207.3a.2.2,0,0,0,0-.4Z" transform="translate(-199.987 -343.979)" fill="#333"/>
        </g>
      </g>
      <g id="Group_541" data-name="Group 541" transform="translate(63.223 677.722)">
        <g id="Group_540" data-name="Group 540" transform="translate(0)">
          <path id="Path_135" data-name="Path 135" d="M344.177,335.98a.2.2,0,0,0-.2.2v.4a.2.2,0,0,0,.4,0v-.4A.2.2,0,0,0,344.177,335.98Z" transform="translate(-343.979 -335.98)" fill="#333"/>
        </g>
      </g>
      <g id="Group_543" data-name="Group 543" transform="translate(56.304 677.722)">
        <g id="Group_542" data-name="Group 542" transform="translate(0)">
          <path id="Path_136" data-name="Path 136" d="M200.185,335.98a.2.2,0,0,0-.2.2v.4a.2.2,0,0,0,.4,0v-.4A.2.2,0,0,0,200.185,335.98Z" transform="translate(-199.987 -335.98)" fill="#333"/>
        </g>
      </g>
      <g id="Group_545" data-name="Group 545" transform="translate(57.073 677.917)">
        <g id="Group_544" data-name="Group 544" transform="translate(0)">
          <path id="Path_137" data-name="Path 137" d="M216.185,339.988a.2.2,0,0,0-.2.2v.2a.2.2,0,0,0,.4,0v-.2A.2.2,0,0,0,216.185,339.988Z" transform="translate(-215.987 -339.988)" fill="#333"/>
        </g>
      </g>
      <g id="Group_547" data-name="Group 547" transform="translate(57.841 677.917)">
        <g id="Group_546" data-name="Group 546">
          <path id="Path_138" data-name="Path 138" d="M232.184,339.988a.2.2,0,0,0-.2.2v.2a.2.2,0,0,0,.4,0v-.2A.2.2,0,0,0,232.184,339.988Z" transform="translate(-231.986 -339.988)" fill="#333"/>
        </g>
      </g>
      <g id="Group_549" data-name="Group 549" transform="translate(58.61 677.917)">
        <g id="Group_548" data-name="Group 548" transform="translate(0)">
          <path id="Path_139" data-name="Path 139" d="M248.182,339.988a.2.2,0,0,0-.2.2v.2a.2.2,0,0,0,.4,0v-.2A.2.2,0,0,0,248.182,339.988Z" transform="translate(-247.984 -339.988)" fill="#333"/>
        </g>
      </g>
      <g id="Group_551" data-name="Group 551" transform="translate(59.379 677.917)">
        <g id="Group_550" data-name="Group 550">
          <path id="Path_140" data-name="Path 140" d="M264.183,339.988a.2.2,0,0,0-.2.2v.2a.2.2,0,1,0,.4,0v-.2A.2.2,0,0,0,264.183,339.988Z" transform="translate(-263.985 -339.988)" fill="#333"/>
        </g>
      </g>
      <g id="Group_553" data-name="Group 553" transform="translate(60.148 677.917)">
        <g id="Group_552" data-name="Group 552">
          <path id="Path_141" data-name="Path 141" d="M280.18,339.988a.2.2,0,0,0-.2.2v.2a.2.2,0,0,0,.4,0v-.2A.2.2,0,0,0,280.18,339.988Z" transform="translate(-279.982 -339.988)" fill="#333"/>
        </g>
      </g>
      <g id="Group_555" data-name="Group 555" transform="translate(60.917 677.917)">
        <g id="Group_554" data-name="Group 554" transform="translate(0)">
          <path id="Path_142" data-name="Path 142" d="M296.181,339.988a.2.2,0,0,0-.2.2v.2a.2.2,0,0,0,.4,0v-.2A.2.2,0,0,0,296.181,339.988Z" transform="translate(-295.983 -339.988)" fill="#333"/>
        </g>
      </g>
      <g id="Group_557" data-name="Group 557" transform="translate(61.685 677.917)">
        <g id="Group_556" data-name="Group 556" transform="translate(0)">
          <path id="Path_143" data-name="Path 143" d="M312.179,339.988a.2.2,0,0,0-.2.2v.2a.2.2,0,0,0,.4,0v-.2A.2.2,0,0,0,312.179,339.988Z" transform="translate(-311.981 -339.988)" fill="#333"/>
        </g>
      </g>
      <g id="Group_559" data-name="Group 559" transform="translate(62.454 677.917)">
        <g id="Group_558" data-name="Group 558" transform="translate(0)">
          <path id="Path_144" data-name="Path 144" d="M328.178,339.988a.2.2,0,0,0-.2.2v.2a.2.2,0,0,0,.4,0v-.2A.2.2,0,0,0,328.178,339.988Z" transform="translate(-327.98 -339.988)" fill="#333"/>
        </g>
      </g>
      <g id="Group_561" data-name="Group 561" transform="translate(52.788 664.372)">
        <g id="Group_560" data-name="Group 560">
          <path id="Path_145" data-name="Path 145" d="M149.634,48H136.19a.2.2,0,0,0-.2.2v1.582a.2.2,0,0,0,.2.2h13.444a.2.2,0,0,0,.2-.2V48.2A.2.2,0,0,0,149.634,48Zm-.2,1.582H136.387V48.393h13.048V49.58Z" transform="translate(-135.992 -47.998)" fill="#333"/>
        </g>
      </g>
      <g id="Group_563" data-name="Group 563" transform="translate(54.994 665.163)">
        <g id="Group_562" data-name="Group 562" transform="translate(0)">
          <path id="Path_146" data-name="Path 146" d="M185.678,64h-9.49a.2.2,0,0,0,0,.4h9.49a.2.2,0,0,0,0-.4Z" transform="translate(-175.99 -63.996)" fill="#333"/>
        </g>
      </g>
      <g id="Group_565" data-name="Group 565" transform="translate(54.194 680.359)">
        <g id="Group_564" data-name="Group 564">
          <path id="Path_147" data-name="Path 147" d="M171.259,391.977H160.188a.2.2,0,1,0,0,.4h11.071a.2.2,0,1,0,0-.4Z" transform="translate(-159.99 -391.977)" fill="#333"/>
        </g>
      </g>
      <g id="Group_567" data-name="Group 567" transform="translate(56.587 681.108)">
        <g id="Group_566" data-name="Group 566">
          <path id="Path_148" data-name="Path 148" d="M214.511,407.975h-6.327a.2.2,0,1,0,0,.4h6.327a.2.2,0,0,0,0-.4Z" transform="translate(-207.987 -407.975)" fill="#333"/>
        </g>
      </g>
    </g>
  </g>
</svg>
