<svg xmlns="http://www.w3.org/2000/svg" width="25" height="25" viewBox="0 0 25 25">
  <path id="search" d="M25.6,22.771l-6.163-6.188a9.855,9.855,0,0,0,2.453-6.489A10.291,10.291,0,0,0,11.439,0,10.291,10.291,0,0,0,.984,10.094,10.291,10.291,0,0,0,11.439,20.187c2.164,0,5.99-1.827,5.99-1.827l6.21,6.235a1.4,1.4,0,0,0,1.928.036A1.286,1.286,0,0,0,25.6,22.771ZM11.439,2.633a7.606,7.606,0,0,1,7.728,7.461,7.606,7.606,0,0,1-7.728,7.461,7.606,7.606,0,0,1-7.728-7.461A7.606,7.606,0,0,1,11.439,2.633Z" transform="translate(-0.984)" fill="#fbb72b"/>
</svg>
