<svg xmlns="http://www.w3.org/2000/svg" width="21.34" height="21.34" viewBox="0 0 21.34 21.34">
  <path id="tag" d="M9.089.1A.354.354,0,0,0,8.725.019L2.9,1.962,1.09.155a.356.356,0,0,0-.5.5L2.393,2.465.45,8.294a.356.356,0,0,0,.086.364L13.114,21.236a.356.356,0,0,0,.5,0l8.05-8.051a.355.355,0,0,0,0-.5Zm4.277,20.377L1.194,8.31,2.955,3.027,4.334,4.407a1.779,1.779,0,1,0,.5-.5L3.459,2.524,8.742.762,20.913,12.933ZM5.567,5.639a.356.356,0,0,0,.5-.5l-.708-.709a1.056,1.056,0,0,1,1.212.205,1.071,1.071,0,1,1-1.716.3Zm0,0" transform="translate(-0.432 0)" fill="#fbb72b"/>
</svg>
