<svg xmlns="http://www.w3.org/2000/svg" width="20" height="25" viewBox="0 0 20 25"><g transform="translate(-5.5)"><path d="M28.966,32.319a.466.466,0,0,0,.466-.466V16.466a.466.466,0,0,0-.932,0V31.852A.466.466,0,0,0,28.966,32.319Z" transform="translate(-13.466 -11.049)" fill="#333"/><path d="M18.966,32.319a.466.466,0,0,0,.466-.466V16.466a.466.466,0,0,0-.932,0V31.852A.466.466,0,0,0,18.966,32.319Z" transform="translate(-7.611 -11.049)" fill="#333"/><path d="M38.966,32.319a.466.466,0,0,0,.466-.466V16.466a.466.466,0,0,0-.932,0V31.852A.466.466,0,0,0,38.966,32.319Z" transform="translate(-19.321 -11.049)" fill="#333"/><path d="M25.083,2.542H19.232a3.4,3.4,0,0,0-.755-2A1.748,1.748,0,0,0,17.166,0H13a1.748,1.748,0,0,0-1.31.546,3.4,3.4,0,0,0-.755,2H5.917a.424.424,0,0,0,0,.847h.85l.8,19.5A2.042,2.042,0,0,0,9.61,25H21.39a2.039,2.039,0,0,0,2.045-2.1l.8-19.509h.85a.424.424,0,0,0,0-.847ZM12.288,1.136A.936.936,0,0,1,13,.847h4.166a.936.936,0,0,1,.712.289,2.519,2.519,0,0,1,.517,1.406H11.772A2.522,2.522,0,0,1,12.288,1.136ZM22.6,22.872a1.224,1.224,0,0,1-1.212,1.28H9.61A1.239,1.239,0,0,1,8.4,22.864L7.6,3.39H23.4Z" transform="translate(0)" fill="#333"/></g></svg>