<svg xmlns="http://www.w3.org/2000/svg" width="23.651" height="21.722" viewBox="0 0 23.651 21.722">
  <path id="serving-dish" d="M22.643,11.1h-.821a9.916,9.916,0,0,0-.907-3.586.346.346,0,1,0-.628.291,9.23,9.23,0,0,1,.841,3.294H5.28a.346.346,0,0,0,0,.692H22.643a.318.318,0,0,1,.317.317v.422a.318.318,0,0,1-.317.317H1.01a.318.318,0,0,1-.317-.317V12.11a.318.318,0,0,1,.317-.317H3.668a.346.346,0,1,0,0-.692H2.524A9.323,9.323,0,0,1,11.2,2.426h0q.141-.009.279-.014l.055,0,.1,0,.186,0c.083,0,.165,0,.248,0l.073,0,.19.009.1.006a9.33,9.33,0,0,1,7.08,4.032.346.346,0,1,0,.57-.392,10.023,10.023,0,0,0-6.844-4.251A1.684,1.684,0,0,0,13.514.9c0-.188-.084-.535-.646-.741a3.468,3.468,0,0,0-2.084,0c-.562.207-.646.553-.646.741a1.687,1.687,0,0,0,.268.911A10.018,10.018,0,0,0,1.831,11.1H1.01A1.011,1.011,0,0,0,0,12.11v.422A1.01,1.01,0,0,0,1.01,13.542H4.737a4.287,4.287,0,0,0-.531.429l-.007.006a.314.314,0,0,0-.03.032L2.526,16a.954.954,0,0,0-1.3.27l-.646.953a.957.957,0,0,0,.254,1.327l4.42,3a.949.949,0,0,0,.535.165.971.971,0,0,0,.182-.017.949.949,0,0,0,.611-.4l.646-.953a.957.957,0,0,0-.254-1.327l-.025-.017a2.237,2.237,0,0,1,1.164-.7,7.6,7.6,0,0,1,2.8.047,6.609,6.609,0,0,0,2.82-.152L15,17.846a6.559,6.559,0,0,0,2.321-1.174l.015-.013,2.187-1.937a1.067,1.067,0,0,0,.325-1.18h2.791a1.01,1.01,0,0,0,1.009-1.009V12.11A1.01,1.01,0,0,0,22.643,11.1ZM11.826.692a1.621,1.621,0,0,1,1,.224,1,1,0,0,1-.441.813l-.2-.009-.068,0c-.1,0-.192,0-.285,0l-.2,0-.1,0-.119,0-.136.006A1,1,0,0,1,10.83.917a1.621,1.621,0,0,1,1-.224Zm2.481,13.017a1.141,1.141,0,0,0-.091-.167h3.319l-1.435.95-2.045.592-.069,0a1.177,1.177,0,0,0,.323-1.376Zm-3.752-.167-.5.1-.386-.1Zm-3.9,6.419-.646.953a.263.263,0,0,1-.366.07l-4.42-3a.264.264,0,0,1-.07-.366l.646-.953a.261.261,0,0,1,.169-.111.264.264,0,0,1,.05,0,.261.261,0,0,1,.148.046l.239.162h0L6.584,19.6a.264.264,0,0,1,.07.366ZM19.1,14.175l-.024.019-2.19,1.939a5.871,5.871,0,0,1-2.07,1.045l-1.274.352a5.907,5.907,0,0,1-2.522.136,8.237,8.237,0,0,0-3.067-.038,2.939,2.939,0,0,0-1.583.986L3.1,16.393l1.587-1.928a3.257,3.257,0,0,1,2.091-.924h.014a2.608,2.608,0,0,1,.719.134l.152.042,2.291.618a.346.346,0,0,0,.161,0l3-.626a.516.516,0,0,1,.392.076.464.464,0,0,1,.165.2.484.484,0,0,1-.224.626l-1.024.542a.346.346,0,0,0,.169.652l1.518-.033a.349.349,0,0,0,.089-.014l2.14-.619a.347.347,0,0,0,.095-.044L18.6,13.669c.181-.112.422-.2.551-.015a.412.412,0,0,1-.045.521Zm0,0" transform="translate(0 0)" fill="#fbb72b"/>
</svg>
