<svg id="shipped" xmlns="http://www.w3.org/2000/svg" width="25.004" height="15.866" viewBox="0 0 25.004 15.866">
  <g id="Group_452" data-name="Group 452" transform="translate(0 0)">
    <g id="Group_451" data-name="Group 451">
      <path id="Path_93" data-name="Path 93" d="M23.254,100.788l-.648-2.6a.392.392,0,0,0,.31-.384v-.419a1.649,1.649,0,0,0-1.644-1.649H18.323v-.864a.811.811,0,0,0-.809-.812H2.48a.811.811,0,0,0-.809.812v7.121a.392.392,0,1,0,.783,0V94.874a.026.026,0,0,1,.026-.026H17.514a.026.026,0,0,1,.026.026V102a.392.392,0,1,0,.783,0v-.445h4.621a1.282,1.282,0,0,1,1.217.89H22.942a.392.392,0,0,0-.392.393v.838a1.23,1.23,0,0,0,1.227,1.231h.444v1.728H23.2a2.476,2.476,0,0,0-4.687,0h-.189v-2.958a.392.392,0,1,0-.783,0v2.958H9.417a2.476,2.476,0,0,0-4.687,0H2.48a.026.026,0,0,1-.026-.026v-.864h1.7a.393.393,0,0,0,0-.785H.392a.393.393,0,0,0,0,.785H1.67v.864a.811.811,0,0,0,.809.812H4.594c0,.009,0,.017,0,.026a2.48,2.48,0,1,0,4.959,0c0-.009,0-.017,0-.026h8.823c0,.009,0,.017,0,.026a2.48,2.48,0,1,0,4.959,0c0-.009,0-.017,0-.026h1.28a.392.392,0,0,0,.392-.393v-4.189A2.069,2.069,0,0,0,23.254,100.788Zm-4.931-4.265h2.949a.864.864,0,0,1,.861.864v.026H18.323Zm0,4.241V98.2H21.8l.639,2.566ZM7.073,109.142a1.7,1.7,0,1,1,1.7-1.7A1.7,1.7,0,0,1,7.073,109.142Zm13.781,0a1.7,1.7,0,1,1,1.7-1.7A1.7,1.7,0,0,1,20.854,109.142Zm3.367-5.027h-.444a.445.445,0,0,1-.444-.445v-.445h.887v.89Z" transform="translate(0 -94.062)" fill="#fbb72b"/>
    </g>
  </g>
  <g id="Group_454" data-name="Group 454" transform="translate(6.264 12.577)">
    <g id="Group_453" data-name="Group 453">
      <path id="Path_94" data-name="Path 94" d="M129.076,350.6a.809.809,0,1,0,.809.809A.81.81,0,0,0,129.076,350.6Z" transform="translate(-128.267 -350.597)" fill="#fbb72b"/>
    </g>
  </g>
  <g id="Group_456" data-name="Group 456" transform="translate(20.045 12.577)">
    <g id="Group_455" data-name="Group 455">
      <path id="Path_95" data-name="Path 95" d="M411.264,350.6a.809.809,0,1,0,.809.809A.81.81,0,0,0,411.264,350.6Z" transform="translate(-410.455 -350.597)" fill="#fbb72b"/>
    </g>
  </g>
  <g id="Group_458" data-name="Group 458" transform="translate(10.023 10.893)">
    <g id="Group_457" data-name="Group 457">
      <path id="Path_96" data-name="Path 96" d="M211.465,316.393h-5.847a.392.392,0,0,0,0,.783h5.847a.392.392,0,1,0,0-.783Z" transform="translate(-205.227 -316.393)" fill="#fbb72b"/>
    </g>
  </g>
  <g id="Group_460" data-name="Group 460" transform="translate(0.835 9.217)">
    <g id="Group_459" data-name="Group 459">
      <path id="Path_97" data-name="Path 97" d="M22.5,282.188H17.494a.392.392,0,1,0,0,.783H22.5a.392.392,0,0,0,0-.783Z" transform="translate(-17.102 -282.188)" fill="#fbb72b"/>
    </g>
  </g>
  <g id="Group_462" data-name="Group 462" transform="translate(7.099 3.775)">
    <g id="Group_461" data-name="Group 461">
      <path id="Path_98" data-name="Path 98" d="M151.885,171.137a.391.391,0,0,0-.554,0l-3.482,3.482-1.811-1.811a.392.392,0,0,0-.554.554l2.088,2.088a.391.391,0,0,0,.554,0l3.758-3.758A.392.392,0,0,0,151.885,171.137Z" transform="translate(-145.37 -171.023)" fill="#fbb72b"/>
    </g>
  </g>
</svg>
