<svg xmlns="http://www.w3.org/2000/svg" width="40" height="40" viewBox="0 0 40 40">
  <g id="Group_574" data-name="Group 574" transform="translate(-477 -676)">
    <g id="Rectangle_66" data-name="Rectangle 66" transform="translate(477 676)" fill="#fff" stroke="#333" stroke-width="1">
      <rect width="40" height="40" rx="5" stroke="none"/>
      <rect x="0.5" y="0.5" width="39" height="39" rx="4.5" fill="none"/>
    </g>
    <g id="review" transform="translate(486.559 684)">
      <path id="Path_149" data-name="Path 149" d="M20.388,16.569a1.032,1.032,0,0,0-.962-.834h-.442V2.824a.375.375,0,0,0-.337-.4h-4.72V.4A.375.375,0,0,0,13.59,0H.778A.375.375,0,0,0,.441.4v20.98a.375.375,0,0,0,.337.4h11.14l-.169.622a1.351,1.351,0,0,0,.366,1.356.88.88,0,0,0,1.191,0l1.767-1.54a.3.3,0,0,1,.4,0l1.771,1.541a.869.869,0,0,0,1.189,0,1.331,1.331,0,0,0,.367-1.355l-.677-2.5a.445.445,0,0,1,.124-.447l1.774-1.541a1.334,1.334,0,0,0,.365-1.356ZM18.311,3.228V15.735H17.235a.285.285,0,0,1-.1-.02.383.383,0,0,1-.216-.257l-.678-2.494a.971.971,0,0,0-1.922,0l-.388,1.426v-3.9h2.7a.41.41,0,0,0,0-.807h-2.7V8.069h2.7a.41.41,0,0,0,0-.807h-2.7V5.648h2.7a.375.375,0,0,0,.337-.4.375.375,0,0,0-.337-.4h-2.7V3.228ZM1.115,20.98V.807H13.253V15.735H11.126a1.047,1.047,0,0,0-.964.835,1.351,1.351,0,0,0,.368,1.355L12.3,19.466a.445.445,0,0,1,.124.449l-.289,1.065Zm18.51-3.707-1.773,1.541a1.343,1.343,0,0,0-.368,1.35l.678,2.493a.451.451,0,0,1-.121.453.293.293,0,0,1-.4,0l-1.772-1.542a.887.887,0,0,0-1.191,0l-1.77,1.541a.294.294,0,0,1-.4,0,.451.451,0,0,1-.122-.453l.677-2.492a1.344,1.344,0,0,0-.369-1.352l-1.772-1.539a.45.45,0,0,1-.124-.453.348.348,0,0,1,.323-.279h2.192a.815.815,0,0,0,.407-.106l.006,0,.006,0s.008-.007.013-.01a1.152,1.152,0,0,0,.529-.713l.678-2.493a.324.324,0,0,1,.641,0l.678,2.5a1.047,1.047,0,0,0,.96.834h2.192a.348.348,0,0,1,.323.278.45.45,0,0,1-.124.453Zm0,0" fill="#333"/>
      <path id="Path_150" data-name="Path 150" d="M64.78,64.676H72.22a.338.338,0,0,0,0-.676H64.78a.338.338,0,1,0,0,.676Zm0,0" transform="translate(-61.295 -61.294)" fill="#333"/>
      <path id="Path_151" data-name="Path 151" d="M64.78,128.676H72.22a.338.338,0,0,0,0-.676H64.78a.338.338,0,1,0,0,.676Zm0,0" transform="translate(-61.295 -121.508)" fill="#333"/>
      <path id="Path_152" data-name="Path 152" d="M64.78,192.676H72.22a.338.338,0,0,0,0-.676H64.78a.338.338,0,1,0,0,.676Zm0,0" transform="translate(-61.295 -182.263)" fill="#333"/>
      <path id="Path_153" data-name="Path 153" d="M72.558,256.338A.338.338,0,0,0,72.22,256H64.779a.338.338,0,1,0,0,.676H72.22A.338.338,0,0,0,72.558,256.338Zm0,0" transform="translate(-61.294 -243.017)" fill="#333"/>
      <path id="Path_154" data-name="Path 154" d="M71.08,256.363A.329.329,0,0,0,70.8,256H64.718a.376.376,0,0,0,0,.726H70.8A.329.329,0,0,0,71.08,256.363Zm0,0" transform="translate(-61.294 -240.017)" fill="#333"/>
    </g>
  </g>
</svg>
