<svg id="view" xmlns="http://www.w3.org/2000/svg" width="25.004" height="14.323" viewBox="0 0 25.004 14.323">
  <path id="Path_90" data-name="Path 90" d="M21.567,16.41a12.893,12.893,0,0,0-18.213,0L0,19.764,3.437,23.2a12.893,12.893,0,0,0,18.213,0L25,19.847ZM21.053,22.6a12.048,12.048,0,0,1-17.018,0l-2.84-2.84,2.757-2.757a12.048,12.048,0,0,1,17.018,0l2.84,2.84Z" transform="translate(0 -12.644)" fill="#fbb72b"/>
  <path id="Path_91" data-name="Path 91" d="M24.529,21.57a2.96,2.96,0,0,0-2.957,2.957.422.422,0,0,0,.845,0,2.114,2.114,0,0,1,2.112-2.112.422.422,0,1,0,0-.845Z" transform="translate(-12.461 -17.8)" fill="#fbb72b"/>
  <path id="Path_92" data-name="Path 92" d="M22.063,16.57a5.491,5.491,0,1,0,5.491,5.491A5.5,5.5,0,0,0,22.063,16.57Zm0,10.137a4.646,4.646,0,1,1,4.646-4.646A4.651,4.651,0,0,1,22.063,26.707Z" transform="translate(-9.573 -14.912)" fill="#fbb72b"/>
</svg>
